<svg width="19" height="17" viewBox="0 0 19 17" fill="none" xmlns="http://www.w3.org/2000/svg">
<path d="M18.3199 2.71829C17.6731 3.01956 16.9808 3.22682 16.2511 3.32082C16.9956 2.84615 17.5649 2.09532 17.8363 1.20086C17.1379 1.63291 16.3653 1.94586 15.5439 2.12276C14.8889 1.37777 13.9525 0.908936 12.9134 0.908936C10.9215 0.908936 9.30711 2.62371 9.30711 4.73725C9.30711 5.04143 9.34173 5.33336 9.40163 5.61011C6.40525 5.46122 3.749 3.93153 1.97249 1.62065C1.66038 2.18348 1.48289 2.8374 1.48289 3.54911C1.48289 4.88088 2.12085 6.04858 3.08521 6.73519C2.49561 6.71709 1.94062 6.54368 1.45432 6.25818V6.3043C1.45432 8.16153 2.69617 9.70991 4.34465 10.0626C4.04408 10.1472 3.72317 10.1963 3.39733 10.1963C3.16599 10.1963 2.94509 10.1723 2.72475 10.1291C3.18852 11.6495 4.51609 12.7564 6.09863 12.7897C4.86832 13.8144 3.30886 14.4251 1.62851 14.4251C1.34222 14.4251 1.05649 14.4105 0.769653 14.3737C2.37252 15.4597 4.26442 16.0949 6.30799 16.0949C12.9387 16.0949 16.5621 10.2593 16.5621 5.2055C16.5621 5.04435 16.5621 4.88029 16.5505 4.71565C17.2577 4.18025 17.8699 3.50182 18.3534 2.73289L18.3199 2.71829Z" fill="white"/>
</svg>
