<svg width="20" height="20" viewBox="0 0 20 20" fill="none" xmlns="http://www.w3.org/2000/svg">
<path d="M9.92978 1.66833C5.51786 1.66833 1.93716 5.24903 1.93716 9.66095C1.93716 14.0729 5.51786 17.6536 9.92978 17.6536C14.3417 17.6536 17.9224 14.0729 17.9224 9.66095C17.9224 5.24903 14.3417 1.66833 9.92978 1.66833ZM13.6384 7.10331C13.5185 8.36615 12.9989 11.4353 12.7352 12.85C12.6233 13.4494 12.3995 13.6493 12.1917 13.6732C11.7281 13.7132 11.3764 13.3695 10.9289 13.0738C10.2255 12.6102 9.82588 12.3225 9.1465 11.8749C8.35523 11.3554 8.86676 11.0676 9.32234 10.6041C9.44223 10.4842 11.4883 8.62191 11.5283 8.45406C11.5339 8.42864 11.5331 8.40225 11.5261 8.37718C11.5192 8.35211 11.5062 8.32911 11.4883 8.3102C11.4404 8.27024 11.3764 8.28622 11.3205 8.29421C11.2486 8.3102 10.1296 9.05351 7.94761 10.5242C7.62791 10.74 7.34017 10.8518 7.08441 10.8439C6.79667 10.8359 6.25318 10.684 5.84555 10.5481C5.34202 10.3883 4.95038 10.3004 4.98235 10.0206C4.99834 9.87675 5.19815 9.73288 5.5738 9.58102C7.90765 8.56596 9.45821 7.89458 10.2335 7.57488C12.4554 6.64773 12.911 6.48788 13.2147 6.48788C13.2787 6.48788 13.4305 6.50387 13.5265 6.58379C13.6064 6.64773 13.6304 6.73565 13.6384 6.79959C13.6304 6.84755 13.6463 6.99142 13.6384 7.10331Z" fill="white"/>
</svg>
