<svg width="17" height="14" viewBox="0 0 17 14" fill="none" xmlns="http://www.w3.org/2000/svg">
<path d="M14.2064 1.90071C13.1203 1.40383 11.9635 1.0377 10.7449 0.828491C10.5948 1.09001 10.4182 1.44741 10.3034 1.73508C9.01418 1.5433 7.7338 1.5433 6.47107 1.73508C6.34745 1.44741 6.17084 1.09001 6.02073 0.828491C4.80215 1.0377 3.64539 1.40383 2.55926 1.90071C0.369361 5.16096 -0.222267 8.34275 0.0691318 11.4722C1.52612 12.5445 2.93013 13.1895 4.31649 13.6167C4.66087 13.1547 4.96109 12.6578 5.226 12.1435C4.72268 11.9604 4.24584 11.725 3.7955 11.4548C3.91912 11.3676 4.03392 11.2717 4.14871 11.1846C6.91258 12.4573 9.90604 12.4573 12.6346 11.1846C12.7494 11.2805 12.8642 11.3676 12.9878 11.4548C12.5375 11.725 12.0518 11.9517 11.5573 12.1435C11.8222 12.6578 12.1224 13.1547 12.4668 13.6167C13.8532 13.1895 15.266 12.5445 16.7142 11.4722C17.0585 7.83715 16.1225 4.69023 14.224 1.90071H14.2064ZM5.59687 9.55444C4.76683 9.55444 4.0869 8.79604 4.0869 7.8633C4.0869 6.93056 4.74917 6.17216 5.59687 6.17216C6.44458 6.17216 7.11568 6.93056 7.10685 7.8633C7.10685 8.78733 6.44458 9.55444 5.59687 9.55444ZM11.1688 9.55444C10.3387 9.55444 9.65879 8.79604 9.65879 7.8633C9.65879 6.93056 10.3211 6.17216 11.1688 6.17216C12.0165 6.17216 12.6876 6.93056 12.6787 7.8633C12.6787 8.78733 12.0165 9.55444 11.1688 9.55444Z" fill="white"/>
</svg>
